<?xml version="1.0" standalone="no"?>
<!DOCTYPE svg PUBLIC "-//W3C//DTD SVG 20010904//EN"
 "http://www.w3.org/TR/2001/REC-SVG-20010904/DTD/svg10.dtd">
<svg version="1.0" xmlns="http://www.w3.org/2000/svg"
 width="1024.000000pt" height="1024.000000pt" viewBox="0 0 1024.000000 1024.000000"
 preserveAspectRatio="xMidYMid meet">

<g transform="translate(0.000000,1024.000000) scale(0.100000,-0.100000)"
fill="#000000" stroke="none">
<path d="M4925 8623 c-406 -50 -716 -158 -1003 -350 -127 -85 -206 -151 -325
-270 l-98 -99 123 -114 c68 -62 214 -200 326 -307 172 -166 202 -199 202 -224
0 -34 -31 -69 -61 -69 -11 0 -30 11 -42 26 -46 53 -573 558 -602 576 -55 33
-105 19 -105 -29 0 -22 215 -261 513 -570 117 -121 125 -139 76 -175 -19 -15
-31 -17 -50 -9 -14 5 -160 149 -323 319 -164 171 -305 313 -313 316 -44 17
-83 -10 -83 -59 0 -34 13 -50 349 -410 143 -154 261 -288 261 -298 0 -22 -43
-67 -65 -67 -9 0 -105 91 -213 202 -251 256 -424 415 -463 423 -64 14 -92 -60
-46 -122 13 -17 113 -130 223 -250 109 -120 247 -272 305 -338 263 -297 369
-351 666 -338 139 6 143 5 195 -20 38 -19 93 -67 195 -169 78 -79 154 -158
169 -176 l27 -34 -595 -596 c-382 -383 -603 -611 -616 -637 -49 -99 -36 -191
37 -266 65 -67 125 -82 217 -54 65 19 138 82 276 236 62 69 217 240 344 380
127 140 315 347 418 462 103 114 192 205 197 202 5 -4 112 -119 237 -258 855
-942 873 -961 958 -1003 72 -35 124 -41 179 -19 101 38 149 109 150 220 0 56
-5 79 -24 111 l-23 42 43 38 c321 278 563 683 663 1114 80 343 77 713 -9 1055
-35 138 -122 376 -140 382 -5 1 -36 -40 -68 -93 l-59 -95 36 -112 c179 -562
94 -1221 -220 -1700 -89 -135 -160 -221 -283 -341 l-102 -98 -27 24 c-15 14
-98 89 -184 167 -87 79 -158 146 -157 149 0 4 32 34 70 66 189 158 338 381
418 621 57 173 66 238 66 487 0 124 -3 230 -7 233 -4 4 -20 -8 -35 -26 -15
-18 -53 -62 -85 -96 -38 -43 -55 -69 -51 -82 9 -36 -17 -267 -41 -362 -63
-249 -198 -475 -375 -627 -109 -94 -101 -93 -177 -26 -83 73 -369 337 -453
420 l-65 63 79 81 c50 51 99 90 133 107 52 25 56 26 130 15 118 -18 152 -15
219 18 68 34 243 180 344 287 172 183 758 951 874 1145 105 177 121 309 47
391 -53 59 -168 75 -251 36 -35 -17 -256 -233 -943 -923 l-896 -901 -188 181
c-114 109 -198 198 -212 225 -23 43 -24 49 -18 201 8 236 -8 276 -196 477 -54
58 -97 111 -95 116 8 24 152 121 262 175 356 175 771 172 1130 -8 90 -45 168
-94 228 -144 l48 -40 73 71 74 71 -67 49 c-368 271 -789 373 -1208 292 -230
-45 -470 -155 -636 -293 l-47 -40 -136 128 c-75 71 -159 150 -187 176 -34 30
-48 50 -42 56 214 200 545 377 838 447 317 76 706 73 1017 -6 273 -70 579
-230 762 -399 61 -55 69 -60 90 -49 32 17 118 100 118 114 0 18 -93 102 -200
182 -383 282 -832 426 -1315 422 -82 -1 -163 -4 -180 -6z"/>
<path d="M6459 7873 c-13 -16 -12 -17 4 -4 9 7 17 15 17 17 0 8 -8 3 -21 -13z"/>
<path d="M5880 7303 l-95 -98 98 95 c90 88 102 100 94 100 -1 0 -45 -44 -97
-97z"/>
<path d="M5739 7163 l-34 -38 38 34 c34 33 42 41 34 41 -2 0 -19 -17 -38 -37z"/>
<path d="M3036 7039 c-51 -171 -82 -453 -73 -659 17 -360 111 -693 283 -996
54 -93 189 -278 272 -370 l52 -58 70 69 69 68 -42 50 c-280 327 -442 693 -486
1099 -20 182 -10 437 23 595 l13 63 -67 82 c-97 120 -96 120 -114 57z"/>
<path d="M5579 6993 c-13 -16 -12 -17 4 -4 9 7 17 15 17 17 0 8 -8 3 -21 -13z"/>
<path d="M5534 6948 l-19 -23 23 19 c21 18 27 26 19 26 -2 0 -12 -10 -23 -22z"/>
<path d="M6739 6953 c-13 -16 -12 -17 4 -4 9 7 17 15 17 17 0 8 -8 3 -21 -13z"/>
<path d="M6709 6913 c-13 -16 -12 -17 4 -4 9 7 17 15 17 17 0 8 -8 3 -21 -13z"/>
<path d="M5455 6868 l-50 -53 53 50 c48 46 57 55 49 55 -1 0 -25 -24 -52 -52z"/>
<path d="M6669 6863 c-13 -16 -12 -17 4 -4 9 7 17 15 17 17 0 8 -8 3 -21 -13z"/>
<path d="M3250 6856 c0 -2 8 -10 18 -17 15 -13 16 -12 3 4 -13 16 -21 21 -21
13z"/>
<path d="M6634 6818 l-19 -23 23 19 c21 18 27 26 19 26 -2 0 -12 -10 -23 -22z"/>
<path d="M3315 6780 c10 -11 20 -20 23 -20 3 0 -3 9 -13 20 -10 11 -20 20 -23
20 -3 0 3 -9 13 -20z"/>
<path d="M6579 6753 c-13 -16 -12 -17 4 -4 9 7 17 15 17 17 0 8 -8 3 -21 -13z"/>
<path d="M3410 6665 c13 -14 26 -25 28 -25 3 0 -5 11 -18 25 -13 14 -26 25
-28 25 -3 0 5 -11 18 -25z"/>
<path d="M3500 6556 c0 -2 8 -10 18 -17 15 -13 16 -12 3 4 -13 16 -21 21 -21
13z"/>
<path d="M5114 6518 l-29 -33 33 29 c30 28 37 36 29 36 -2 0 -16 -15 -33 -32z"/>
<path d="M6339 6483 l-24 -28 28 24 c15 14 27 26 27 28 0 8 -8 1 -31 -24z"/>
<path d="M3590 6455 c13 -14 26 -25 28 -25 3 0 -5 11 -18 25 -13 14 -26 25
-28 25 -3 0 5 -11 18 -25z"/>
<path d="M5025 6428 l-50 -53 53 50 c48 46 57 55 49 55 -1 0 -25 -24 -52 -52z"/>
<path d="M3665 6348 c44 -366 138 -591 353 -846 l45 -54 63 63 c35 35 64 68
64 74 0 7 -12 22 -26 36 -32 30 -101 125 -147 204 -68 117 -108 230 -152 432
-4 16 -27 33 -77 58 -39 20 -80 42 -92 50 -30 22 -35 19 -31 -17z"/>
<path d="M6154 6298 l-19 -23 23 19 c21 18 27 26 19 26 -2 0 -12 -10 -23 -22z"/>
<path d="M3928 6263 c7 -3 16 -2 19 1 4 3 -2 6 -13 5 -11 0 -14 -3 -6 -6z"/>
<path d="M4113 6243 c9 -2 23 -2 30 0 6 3 -1 5 -18 5 -16 0 -22 -2 -12 -5z"/>
<path d="M6059 6203 l-34 -38 38 34 c34 33 42 41 34 41 -2 0 -19 -17 -38 -37z"/>
<path d="M4360 6216 c0 -2 8 -10 18 -17 15 -13 16 -12 3 4 -13 16 -21 21 -21
13z"/>
<path d="M4500 6087 c0 -2 15 -16 33 -33 l32 -29 -29 33 c-28 30 -36 37 -36
29z"/>
<path d="M5583 6043 c9 -2 25 -2 35 0 9 3 1 5 -18 5 -19 0 -27 -2 -17 -5z"/>
<path d="M5748 6033 c7 -3 16 -2 19 1 4 3 -2 6 -13 5 -11 0 -14 -3 -6 -6z"/>
<path d="M4415 5798 l-110 -113 113 110 c104 102 117 115 109 115 -1 0 -52
-51 -112 -112z"/>
<path d="M4250 5635 c-24 -25 -42 -45 -39 -45 3 0 25 20 49 45 24 25 42 45 39
45 -3 0 -25 -20 -49 -45z"/>
<path d="M4989 5483 l-34 -38 38 34 c20 19 37 36 37 38 0 8 -8 0 -41 -34z"/>
<path d="M5140 5425 c13 -14 26 -25 28 -25 3 0 -5 11 -18 25 -13 14 -26 25
-28 25 -3 0 5 -11 18 -25z"/>
<path d="M4860 5345 c-24 -25 -42 -45 -39 -45 3 0 25 20 49 45 24 25 42 45 39
45 -3 0 -25 -20 -49 -45z"/>
<path d="M3954 5328 l-19 -23 23 19 c21 18 27 26 19 26 -2 0 -12 -10 -23 -22z"/>
<path d="M5240 5315 c13 -14 26 -25 28 -25 3 0 -5 11 -18 25 -13 14 -26 25
-28 25 -3 0 5 -11 18 -25z"/>
<path d="M5315 5230 c10 -11 20 -20 23 -20 3 0 -3 9 -13 20 -10 11 -20 20 -23
20 -3 0 3 -9 13 -20z"/>
<path d="M4706 5170 c-38 -39 -67 -72 -65 -74 9 -9 140 -49 219 -68 125 -29
354 -35 499 -14 63 10 119 20 123 22 5 3 -24 42 -63 86 -68 75 -74 79 -105 73
-18 -3 -93 -6 -166 -6 -121 0 -241 16 -353 47 -16 4 -36 -11 -89 -66z"/>
<path d="M3734 5118 l-19 -23 23 19 c21 18 27 26 19 26 -2 0 -12 -10 -23 -22z"/>
<path d="M4554 5018 l-19 -23 23 19 c12 11 22 21 22 23 0 8 -8 2 -26 -19z"/>
<path d="M5500 5036 c0 -2 8 -10 18 -17 15 -13 16 -12 3 4 -13 16 -21 21 -21
13z"/>
<path d="M5590 4935 c19 -19 36 -35 39 -35 3 0 -10 16 -29 35 -19 19 -36 35
-39 35 -3 0 10 -16 29 -35z"/>
<path d="M4479 4943 c-13 -16 -12 -17 4 -4 16 13 21 21 13 21 -2 0 -10 -8 -17
-17z"/>
<path d="M4389 4843 l-34 -38 38 34 c20 19 37 36 37 38 0 8 -8 0 -41 -34z"/>
<path d="M5655 4860 c10 -11 20 -20 23 -20 3 0 -3 9 -13 20 -10 11 -20 20 -23
20 -3 0 3 -9 13 -20z"/>
<path d="M4329 4783 c-13 -16 -12 -17 4 -4 9 7 17 15 17 17 0 8 -8 3 -21 -13z"/>
<path d="M5760 4745 c19 -19 36 -35 39 -35 3 0 -10 16 -29 35 -19 19 -36 35
-39 35 -3 0 10 -16 29 -35z"/>
<path d="M4197 4622 c-37 -41 -67 -77 -67 -81 0 -12 229 -117 315 -144 229
-73 366 -96 597 -104 324 -11 588 37 870 155 49 20 88 39 88 42 0 3 -33 38
-73 78 l-73 73 -90 -35 c-439 -168 -983 -148 -1418 53 l-81 38 -68 -75z"/>
<path d="M2891 3876 c-9 -11 -12 -228 -12 -867 0 -800 1 -854 17 -866 28 -20
278 -18 298 3 14 14 16 106 16 868 0 649 -3 855 -12 864 -19 19 -292 17 -307
-2z"/>
<path d="M7146 3874 c-14 -14 -16 -105 -16 -857 0 -746 2 -845 16 -865 14 -21
22 -22 149 -22 108 0 137 3 149 16 14 14 16 106 16 863 0 809 -1 849 -18 864
-27 24 -273 25 -296 1z"/>
<path d="M1533 3820 c-61 -3 -115 -8 -119 -12 -4 -4 -7 -378 -6 -830 1 -769 2
-823 18 -835 13 -9 62 -13 164 -13 130 0 149 2 163 18 15 16 17 51 17 279 0
229 2 262 16 267 9 3 82 6 163 6 243 0 368 22 495 88 133 70 223 182 261 328
18 68 20 220 4 296 -30 145 -135 277 -270 341 -129 61 -188 69 -509 71 -157 0
-335 -1 -397 -4z m666 -304 c106 -39 161 -120 161 -236 0 -116 -36 -189 -118
-233 -69 -37 -148 -48 -317 -45 l-150 3 -3 254 c-2 190 1 257 10 268 18 22
353 13 417 -11z"/>
<path d="M5040 3681 c-47 -8 -60 -38 -60 -142 0 -122 -9 -131 -127 -138 -54
-4 -97 -11 -106 -20 -14 -11 -17 -33 -17 -116 0 -132 3 -135 128 -135 80 0 93
-2 102 -19 6 -12 10 -133 10 -324 0 -167 5 -328 10 -357 30 -160 138 -275 289
-310 105 -24 305 4 352 51 16 16 19 33 19 108 0 120 -3 123 -123 115 -86 -6
-94 -4 -127 18 -68 46 -70 56 -70 406 l0 312 140 0 c180 0 180 0 180 136 0
139 6 134 -156 134 -74 0 -144 5 -155 10 -17 10 -19 22 -19 129 0 83 -4 122
-12 129 -16 12 -209 23 -258 13z"/>
<path d="M3944 3420 c-241 -34 -409 -167 -438 -345 -11 -65 4 -72 164 -76
l135 -4 25 50 c30 60 72 90 147 105 111 24 219 -11 255 -82 19 -37 46 -163 37
-172 -2 -2 -96 -9 -209 -15 -221 -12 -326 -29 -407 -67 -73 -35 -147 -108
-180 -179 -25 -53 -28 -72 -28 -155 0 -82 4 -103 27 -152 65 -141 221 -228
406 -228 126 0 240 39 349 121 29 21 53 39 55 39 2 0 4 -21 6 -47 5 -78 15
-83 163 -83 70 0 134 3 143 6 14 5 16 54 16 448 0 359 -3 452 -15 499 -44 168
-154 275 -332 322 -71 19 -236 27 -319 15z m324 -805 c-7 -87 -41 -142 -121
-198 -34 -24 -77 -49 -96 -56 -77 -25 -190 -4 -232 45 -25 29 -42 91 -35 129
8 41 47 90 88 111 40 21 128 31 277 33 l124 1 -5 -65z"/>
<path d="M6225 3416 c-135 -26 -224 -73 -320 -170 -75 -75 -124 -157 -157
-260 -28 -87 -36 -304 -14 -406 25 -121 82 -225 170 -307 124 -119 255 -167
451 -166 182 0 317 48 428 153 69 64 122 149 112 179 -6 20 -146 85 -209 96
-31 6 -36 4 -70 -41 -71 -93 -134 -119 -270 -112 -159 8 -245 80 -279 232
l-13 61 440 5 c243 3 443 7 445 8 2 1 1 62 -1 135 -4 105 -11 148 -32 212 -60
187 -202 323 -385 370 -88 22 -212 27 -296 11z m216 -266 c78 -22 147 -112
162 -212 l6 -38 -275 0 c-169 0 -274 4 -274 10 0 5 9 33 20 63 44 117 142 187
259 187 37 0 82 -5 102 -10z"/>
<path d="M8560 3399 c-13 -6 -28 -15 -32 -22 -6 -10 -91 -265 -261 -790 l-22
-68 -129 398 c-135 415 -155 466 -181 477 -9 3 -81 6 -159 6 -152 0 -166 -4
-166 -49 0 -13 88 -247 196 -520 108 -273 210 -534 226 -581 51 -150 36 -244
-51 -305 -39 -27 -51 -30 -136 -33 -55 -2 -98 -9 -104 -15 -5 -7 -15 -47 -22
-90 -11 -68 -11 -82 2 -105 42 -76 229 -90 368 -26 34 15 78 49 120 92 81 82
144 202 230 437 32 88 140 377 240 642 99 265 181 496 181 512 0 20 -7 34 -19
41 -25 13 -248 12 -281 -1z"/>
</g>
</svg>
